<?xml version="1.0" standalone="no"?>
<!DOCTYPE svg PUBLIC "-//W3C//DTD SVG 1.1//EN" "http://www.w3.org/Graphics/SVG/1.1/DTD/svg11.dtd" >
<svg xmlns="http://www.w3.org/2000/svg">
<metadata>
This is a custom SVG webfont generated by Font Squirrel.
Copyright   : c 20012008 Jean Francois Porchez Porchez Typofonderie All rights reserved Created by Jean Francois Porchez Distributed exclusively by Porchez Typofonderie
Designer    : Created by Jean Francois Porchez Distributed exclusively by Porchez Typofonderie
Foundry     : Porchez Typofonderie
Foundry URL : httpwwwtypofonderiecom
</metadata>
<defs>
<font id="ParisinePlusStdSombreBold" horiz-adv-x="1249" >
<font-face units-per-em="2048" ascent="1556" descent="-492" />
<missing-glyph horiz-adv-x="573" />
<glyph unicode=" "  horiz-adv-x="573" />
<glyph unicode="&#x09;" horiz-adv-x="573" />
<glyph unicode="&#xa0;" horiz-adv-x="573" />
<glyph unicode="!" horiz-adv-x="737" d="M106 1516h525q0 -190 -14.5 -449.5t-26.5 -423.5l-15 -164h-411q-58 607 -58 1037zM117 199q0 90 66.5 153.5t189.5 63.5q119 0 184.5 -58.5t65.5 -158.5q0 -102 -68 -159.5t-182.5 -57.5t-185 59.5t-70.5 157.5z" />
<glyph unicode="&#x22;" horiz-adv-x="1406" d="M190 1516h459l-45 -611h-368zM758 1516h459l-46 -611h-368z" />
<glyph unicode="#" horiz-adv-x="1433" d="M8 336l84 309h199l49 182h-199l84 310h201l84 309h342l-84 -309h129l84 309h342l-86 -309h188l-86 -310h-186l-51 -182h190l-86 -309h-188l-92 -336h-340l92 336h-131l-92 -336h-340l92 336h-199zM633 645h129l49 182h-129z" />
<glyph unicode="$" d="M47 12l62 334q63 -29 166.5 -49.5t185.5 -22.5v109q-406 90 -406 356q0 164 112 272.5t314 133.5v201h275v-195q197 0 391 -45l-57 -315q-150 57 -334 61v-92q428 -88 428 -359q0 -184 -121 -294.5t-328 -135.5v-184h-274v180q-242 0 -414 45zM434 821q0 -29 47 -43v76 q-47 -10 -47 -33zM735 283q39 10 39 39q0 20 -39 34v-73z" />
<glyph unicode="%" horiz-adv-x="1933" d="M10 989q0 88 16.5 166t56.5 153.5t121 121t195 45.5q92 0 163 -31t111 -78t65.5 -113.5t33.5 -129t8 -132t-9 -132t-34.5 -129t-67.5 -115t-113 -79t-163 -30.5q-115 0 -194.5 44t-118.5 119.5t-54.5 152.5t-15.5 167zM330 989q0 -111 9 -171t22.5 -76.5t35.5 -16.5 q37 0 51.5 54.5t14.5 211.5q0 111 -9.5 171.5t-22.5 76.5t-36 16q-37 0 -51 -54t-14 -212zM371 0l866 1446h326l-867 -1446h-325zM1153 454.5q0 69.5 9 132t35 129t68 115t112.5 79t162.5 30.5q115 0 195 -44t118.5 -120t54 -152.5t15.5 -166.5q0 -88 -16.5 -166t-56.5 -154 t-120.5 -121t-195.5 -45q-92 0 -163 31t-110.5 78t-65.5 113.5t-34 129t-8 132zM1470 455q0 -111 9.5 -171.5t23 -77t35.5 -16.5q37 0 51.5 54.5t14.5 212.5q0 111 -9.5 171t-22.5 76.5t-36 16.5q-37 0 -51.5 -54t-14.5 -212z" />
<glyph unicode="&#x26;" horiz-adv-x="1712" d="M41 438q0 141 79 229.5t214 112.5v4q-109 20 -177.5 101.5t-68.5 191.5q0 119 51 204t139.5 128t182.5 61.5t205 18.5q240 0 452 -51l-74 -377q-115 61 -256 61q-172 0 -172 -112q0 -59 46.5 -86t113.5 -27h96v-281h-94q-86 0 -138 -39.5t-52 -123.5q0 -80 66.5 -133.5 t189.5 -53.5q127 0 217 52.5t117 146.5l-177 -57l-106 317l711 236l106 -318l-156 -51q5 -41 6 -80q0 -109 -42 -200q-57 -124 -174 -198.5t-270.5 -113.5t-334.5 -39q-324 0 -512 117.5t-188 359.5z" />
<glyph unicode="'" horiz-adv-x="839" d="M190 1516h459l-45 -611h-368z" />
<glyph unicode="(" horiz-adv-x="860" d="M72 612q0 537 315 904h401q-156 -227 -216 -424t-60 -474q0 -279 61.5 -478t214.5 -427h-401q-315 367 -315 899z" />
<glyph unicode=")" horiz-adv-x="860" d="M61 1516h402q315 -367 315 -904q0 -532 -315 -899h-402q154 227 215.5 427t61.5 478q0 276 -60.5 473.5t-216.5 424.5z" />
<glyph unicode="*" horiz-adv-x="1017" d="M10 1055l92 274l246 -76l-4 263h330l-4 -263l245 76l93 -274l-248 -68l164 -219l-252 -172l-166 215l-160 -215l-252 172l164 219z" />
<glyph unicode="+" d="M55 543v377h377v372h381v-372h381v-377h-379v-369h-381v369h-379z" />
<glyph unicode="," horiz-adv-x="573" d="M-33 -287q152 229 152 471q0 109 -39 215h416q31 -80 30 -178q0 -281 -221 -508h-338z" />
<glyph unicode="-" horiz-adv-x="573" d="M18 408v331h537v-331h-537z" />
<glyph unicode="." horiz-adv-x="573" d="M35 199q0 90 66.5 153.5t189.5 63.5q119 0 184.5 -58.5t65.5 -158.5q0 -102 -67.5 -159.5t-182.5 -57.5t-185.5 59.5t-70.5 157.5z" />
<glyph unicode="/" horiz-adv-x="897" d="M0 0l494 1446h403l-496 -1446h-401z" />
<glyph unicode="0" d="M20 559q0 86 14.5 164t56.5 160t107.5 140t176 96t256 38t255 -38t173 -96t103.5 -140t53.5 -158t13.5 -164q0 -111 -25.5 -207t-88 -189t-188.5 -148.5t-306 -55.5q-145 0 -255 38t-174.5 96.5t-104.5 141t-53.5 159.5t-13.5 163zM508 559q0 -264 119 -264 q63 0 88.5 60.5t25.5 205.5q0 262 -118 262q-63 0 -89 -59.5t-26 -204.5z" />
<glyph unicode="1" d="M23 862q281 106 505 254h465v-788h209v-328h-985v328h256v340q-92 -66 -297 -156z" />
<glyph unicode="2" d="M61 1094q242 61 476 61q109 0 207 -16.5t197 -56.5t159.5 -121.5t60.5 -198.5q0 -215 -233 -320q-16 -8 -76.5 -32.5t-100.5 -44t-59 -37.5h490v-328h-1108v303q51 143 297 240q137 53 195.5 90t58.5 78q0 90 -215 90q-127 0 -254 -62z" />
<glyph unicode="3" d="M27 -311l110 340q104 -51 252 -52q219 0 219 154q0 125 -200 125h-160v307h137q184 0 184 121q0 119 -196 119q-111 0 -217 -51l-95 350q231 53 471 53q98 0 190.5 -17.5t180.5 -57.5t141.5 -116.5t53.5 -183.5q0 -113 -64.5 -195.5t-173.5 -123.5v-4q133 -25 209 -121 t76 -236q0 -135 -62.5 -230t-170 -144.5t-219 -70t-238.5 -20.5q-244 1 -428 54z" />
<glyph unicode="4" d="M16 -117v387q100 317 355.5 561t632.5 347l137 -371q-274 -74 -430 -204t-240 -353h186v270h471v-270h113v-367h-113v-213h-471v213h-641z" />
<glyph unicode="5" d="M37 -311l110 340q104 -51 252 -52q88 0 153.5 36t65.5 116q0 168 -364 168q-20 0 -62 -1t-63 -1l53 821h547q72 0 72 45q0 20 -10 37l274 12q31 -92 31 -186q0 -137 -81 -196.5t-194 -59.5h-297l-8 -137h37q115 0 218 -26.5t191.5 -80t140.5 -146.5t52 -214 q0 -135 -61.5 -240.5t-163 -166t-220 -91.5t-245.5 -31q-248 1 -428 54z" />
<glyph unicode="6" d="M45 659q0 369 192.5 598.5t555.5 229.5q162 0 288 -21l-39 -354q-104 39 -208 39q-88 0 -150.5 -28.5t-91.5 -76t-41 -85t-14 -74.5q92 59 215 59q205 0 330.5 -123t125.5 -327q0 -242 -158.5 -386.5t-402.5 -144.5q-602 0 -602 694zM535 492q0 -197 94 -197q96 0 96 176 q0 170 -96 170q-33 0 -62 -33q-32 -34 -32 -116z" />
<glyph unicode="7" d="M61 737v379h1129v-418q-229 -383 -343 -628.5t-114 -399.5h-543q0 137 38 259t139 288l313 520h-619z" />
<glyph unicode="8" d="M41 377q0 240 262 371q-111 63 -164 136.5t-53 190.5q0 135 90 232.5t212 139.5t255 42q78 0 149.5 -11.5t140 -39t119 -70.5t81 -109.5t30.5 -152.5q0 -188 -221 -311q266 -121 266 -383q0 -119 -54 -209t-145 -141.5t-194.5 -76t-216.5 -24.5q-102 0 -197.5 22.5 t-178.5 69.5t-132 131t-49 193zM516 395q0 -55 23.5 -93t74.5 -38q45 0 68 35t23 82q0 61 -32 100t-91 80q-66 -84 -66 -166zM557 1110q0 -33 18.5 -61.5t34 -40t54.5 -35.5q57 72 57 125q0 41 -21.5 71.5t-60.5 30.5q-37 0 -59.5 -25.5t-22.5 -64.5z" />
<glyph unicode="9" d="M29 621q0 242 158.5 386t402.5 144q602 0 602 -694q0 -369 -192.5 -598.5t-555.5 -229.5q-162 0 -288 21l39 354q104 -39 208 -39q88 0 150.5 29t91.5 76t41 85t14 74q-92 -59 -215 -59q-205 0 -330.5 123t-125.5 328zM512 645q0 -170 96 -170q33 0 62 33q33 35 32 117 q0 197 -94 196q-96 0 -96 -176z" />
<glyph unicode=":" horiz-adv-x="573" d="M33 977q0 90 66.5 153.5t189.5 63.5q119 0 184.5 -58.5t65.5 -158.5q0 -102 -68 -159.5t-182.5 -57.5t-185 59.5t-70.5 157.5zM35 199q0 90 66.5 153.5t189.5 63.5q119 0 184.5 -58.5t65.5 -158.5q0 -102 -67.5 -159.5t-182.5 -57.5t-185.5 59.5t-70.5 157.5z" />
<glyph unicode=";" horiz-adv-x="573" d="M-33 -287q152 229 152 471q0 109 -39 215h416q31 -80 30 -178q0 -281 -221 -508h-338zM18 977q0 90 67 153.5t189 63.5q119 0 184.5 -58.5t65.5 -158.5q0 -102 -67.5 -159.5t-182 -57.5t-185.5 59.5t-71 157.5z" />
<glyph unicode="&#x3c;" d="M55 547v368l1139 394v-439l-590 -137l590 -139v-440z" />
<glyph unicode="=" d="M55 270v373h1139v-373h-1139zM55 823v373h1139v-373h-1139z" />
<glyph unicode="&#x3e;" d="M55 154v440l590 139l-590 137v439l1139 -394v-368z" />
<glyph unicode="?" d="M131 1479q193 55 432 55q109 0 206 -21.5t186 -67.5t141.5 -132t52.5 -201q0 -168 -115 -289q-80 -84 -256 -178q-16 -86 -16 -166h-402l-24 309q150 66 217 134q63 63 63 133q0 66 -54 94.5t-126 28.5q-106 0 -213 -52zM303 198.5q0 104.5 75 161t181 56.5 q109 0 179.5 -55.5t70.5 -162t-70.5 -161.5t-179 -55t-182.5 56t-74 160.5z" />
<glyph unicode="@" horiz-adv-x="1640" d="M20 559q0 360 231.5 560t594.5 200q344 0 559 -169t215 -493q0 -231 -99.5 -370.5t-322.5 -139.5q-63 0 -96 2.5t-86 20.5t-70 57q-84 -92 -268 -92q-111 0 -183.5 68.5t-72.5 181.5q0 268 430 268q55 0 55 29v10q0 74 -153 74q-125 0 -230 -53l-51 239q166 49 352 49 q430 0 430 -305v-274q0 -51 31 -51q72 0 72 196q0 252 -131 389.5t-393 137.5q-279 0 -404 -146.5t-125 -386.5q0 -291 164 -416t461 -125q291 0 506 95l53 -246q-231 -74 -569 -74h-10q-417 0 -652 181q-238 184 -238 583zM762 408q0 -29 17.5 -47.5t43.5 -18.5q41 0 66 29 q20 23 20 61v51h-39q-108 1 -108 -75z" />
<glyph unicode="A" horiz-adv-x="1677" d="M29 0q143 891 479 1446h659q344 -588 482 -1446h-596q-16 135 -27 207h-461q-18 -121 -28 -207h-508zM633 563h328q-57 252 -162 512h-4q-103 -258 -162 -512z" />
<glyph unicode="B" horiz-adv-x="1611" d="M123 0v1446h856q524 0 524 -367q0 -113 -68.5 -188.5t-177.5 -93.5v-4q293 -45 293 -344q0 -129 -52 -221.5t-143 -139.5t-188.5 -67.5t-210.5 -20.5h-833zM662 309h133q98 0 153.5 32t55.5 124q0 133 -222 133h-120v-289zM662 868h112q41 0 65.5 3t61.5 13.5t55.5 40 t18.5 76.5q0 49 -19.5 79t-57.5 41.5t-61.5 13.5t-66.5 2h-108v-269z" />
<glyph unicode="C" horiz-adv-x="1402" d="M61 707q0 383 245 580.5t638 197.5q188 0 391 -47l-94 -408q-121 57 -244 57q-176 0 -279.5 -98t-103.5 -272q0 -170 106.5 -265.5t278.5 -95.5q141 0 256 58l86 -387q-184 -61 -469 -62q-356 0 -583.5 195t-227.5 547z" />
<glyph unicode="D" horiz-adv-x="1734" d="M123 0v1446h682q61 0 103 -1t117 -8t129 -18.5t126 -36t123 -58.5t105.5 -87t88 -119.5t55 -159t21.5 -202.5q0 -184 -50 -321.5t-131 -218.5t-201 -131t-237.5 -67.5t-262.5 -17.5h-668zM661 354h91q184 0 279 85t95 294q0 358 -385 359h-80v-738z" />
<glyph unicode="E" horiz-adv-x="1341" d="M123 426v1020h1067v-381h-528v-147h507v-349h-507v-90q0 -74 45 -98h514v-381h-902q-196 111 -196 426z" />
<glyph unicode="F" horiz-adv-x="1267" d="M123 0v1446h1081v-381h-542v-201h522v-368h-522v-496h-539z" />
<glyph unicode="G" horiz-adv-x="1605" d="M61 707q0 256 124 434t330 261t474 83q281 0 494 -49l-92 -385q-143 55 -324 55q-227 0 -342 -111.5t-115 -304.5q0 -176 90.5 -263t227.5 -87q35 0 53 6v442h522v-747q0 -233 -186.5 -357t-548.5 -124l-25 315q248 0 248 127q-18 -2 -71 -2q-242 0 -432.5 77t-308.5 240 t-118 390z" />
<glyph unicode="H" horiz-adv-x="1697" d="M123 0v1446h539v-506h374v506h539v-1446h-539v553h-374v-553h-539z" />
<glyph unicode="I" horiz-adv-x="800" d="M131 0v1446h539v-1446h-539z" />
<glyph unicode="J" horiz-adv-x="976" d="M31 -436l12 362q6 0 16.5 -1t14.5 -1q139 0 191 68.5t52 216.5v856h-272v381h809v-1290q0 -317 -176 -456.5t-504 -139.5q-57 0 -143 4z" />
<glyph unicode="K" horiz-adv-x="1638" d="M123 0v1446h539v-514q266 186 358 514h567q-115 -393 -395 -647l197 -371q33 -66 59.5 -95.5t67.5 -29.5q25 0 51 10l14 -307q-127 -27 -289 -26q-160 0 -241.5 47t-139.5 182l-131 313l-118 -59v-463h-539z" />
<glyph unicode="L" horiz-adv-x="1282" d="M123 0v1446h539v-1034h579v-412h-1118z" />
<glyph unicode="M" horiz-adv-x="2062" d="M133 0l37 1446h659l117 -383q10 -37 45 -138.5t43 -133.5h2q8 33 90 276l123 379h664l37 -1446h-525v543q0 45 3.5 176t3.5 158h-5q-39 -156 -96 -334l-82 -256h-493l-88 282q-53 178 -82 303h-4q0 -25 2 -142.5t2 -162.5l-4 -567h-449z" />
<glyph unicode="N" horiz-adv-x="1730" d="M123 0v1446h559l285 -397q137 -193 151 -256h4v653h486v-1446h-545l-299 416q-123 172 -152 246h-4v-662h-485z" />
<glyph unicode="O" horiz-adv-x="1742" d="M61 725q0 162 50.5 295t130.5 218t188.5 143.5t219 83t224.5 24.5q168 0 307.5 -41t255 -127t180 -237.5t64.5 -358.5q0 -162 -50 -295t-130 -218t-188.5 -143.5t-219 -83t-225.5 -24.5q-168 0 -307 41t-255 127t-180.5 237.5t-64.5 358.5zM610 727q0 -395 258 -395 q139 0 202 108.5t63 282.5q0 395 -259 395q-139 0 -201.5 -108.5t-62.5 -282.5z" />
<glyph unicode="P" horiz-adv-x="1503" d="M123 0v1446h708q258 0 400 -68q244 -119 244 -422q0 -131 -41 -230t-102.5 -155.5t-148.5 -91.5t-165 -46t-164 -11h-192v-422h-539zM662 762h122q61 0 108.5 40t47.5 132q0 98 -48 135t-110 37h-120v-344z" />
<glyph unicode="Q" horiz-adv-x="1742" d="M61 725q0 162 50.5 295t130.5 218t188.5 143.5t219 83t224.5 24.5q168 0 307.5 -41t255 -127t180 -237.5t64.5 -358.5q0 -272 -127 -445.5t-333 -254.5q61 -88 168 -88q80 0 172 43l86 -386q-135 -35 -281 -34q-444 0 -539 401h-22q-156 8 -286 53t-234.5 132t-164 234.5 t-59.5 344.5zM610 727q0 -395 258 -395q139 0 202 108.5t63 282.5q0 395 -259 395q-139 0 -201.5 -108.5t-62.5 -282.5z" />
<glyph unicode="R" horiz-adv-x="1591" d="M123 0v1446h692q82 0 148.5 -5t152.5 -19.5t149.5 -46.5t122 -80t89 -126.5t30.5 -181.5q0 -143 -77.5 -233t-176.5 -131q49 -100 105 -195q37 -68 64.5 -96.5t62.5 -28.5q27 0 51 10l14 -307q-127 -27 -288 -26q-160 0 -242 47t-139 182l-80 194q-35 86 -103 86h-36 v-489h-539zM662 793h114q199 0 199 161q0 152 -213 152h-100v-313z" />
<glyph unicode="S" horiz-adv-x="1230" d="M51 18l76 392q139 -61 295 -62q174 0 174 96q0 55 -92 91l-76 28q-76 29 -130 56.5t-113.5 74.5t-90.5 116t-31 155q0 252 178.5 386t456.5 134q236 0 445 -51l-74 -377q-119 61 -287 61q-131 0 -131 -76q0 -49 82 -77l82 -31q80 -31 136.5 -60.5t115.5 -79t90 -120 t31 -162.5q0 -266 -188.5 -406.5t-487.5 -140.5q-268 0 -461 53z" />
<glyph unicode="T" horiz-adv-x="1386" d="M31 1047v399h1345v-399h-403v-1047h-539v1047h-403z" />
<glyph unicode="U" horiz-adv-x="1650" d="M102 571v875h539v-918q0 -104 67.5 -155t176.5 -51q59 0 149 22v1102h494v-1434q-324 -49 -610 -49q-137 0 -248 14.5t-220.5 55.5t-183 107.5t-119 176t-45.5 254.5z" />
<glyph unicode="V" horiz-adv-x="1613" d="M10 1446h592l182 -815q33 -141 56 -293h4q14 104 55 291l186 817h519l-412 -1446h-770z" />
<glyph unicode="W" horiz-adv-x="2148" d="M10 1446h563l60 -582l37 -387h2q18 121 73 379l76 344h586l61 -287q70 -317 86 -436h5q0 18 40 430l56 539h483l-225 -1446h-721l-49 268q-47 246 -66 404h-4q-8 -82 -65 -402l-50 -270h-722z" />
<glyph unicode="X" horiz-adv-x="1525" d="M20 0l371 743l-352 703h614l160 -428l141 428h549l-360 -707l362 -739h-614l-170 465l-152 -465h-549z" />
<glyph unicode="Y" horiz-adv-x="1579" d="M45 1446h590q74 -326 190 -555h4q104 211 179 555h526q-139 -535 -473 -918v-528h-541v528q-332 383 -475 918z" />
<glyph unicode="Z" horiz-adv-x="1400" d="M41 0v383l594 666h-578v397h1299v-391l-578 -660h582v-395h-1319z" />
<glyph unicode="[" horiz-adv-x="860" d="M113 -287v1803h635v-306h-211v-1192h211v-305h-635z" />
<glyph unicode="\" horiz-adv-x="897" d="M0 1446h403l494 -1446h-401z" />
<glyph unicode="]" horiz-adv-x="860" d="M113 18h211v1192h-211v306h635v-1803h-635v305z" />
<glyph unicode="^" d="M47 451l393 995h369l393 -995h-440l-139 507l-138 -507h-438z" />
<glyph unicode="_" d="M0 -59h1249v-351h-1249v351z" />
<glyph unicode="`" d="M272 1516h478l227 -318h-336z" />
<glyph unicode="&#x300;" d="M272 1516h478l227 -318h-336z" />
<glyph unicode="&#x2cb;" d="M272 1516h478l227 -318h-336z" />
<glyph unicode="a" horiz-adv-x="1296" d="M25 307q0 367 593 367q41 0 59.5 7t18.5 34v12q0 102 -213 102q-168 0 -319 -73l-70 327q227 68 488 68q594 0 594 -418v-391q0 -72 45 -72q20 0 36 11l13 -275q-133 -27 -238 -26q-229 0 -287 133q-74 -78 -157.5 -113t-210.5 -35q-154 0 -253 94t-99 248zM494 338 q0 -39 24.5 -64.5t59.5 -25.5q59 0 92 39q29 31 28 86v69h-53q-151 0 -151 -104z" />
<glyph unicode="b" horiz-adv-x="1404" d="M102 0v1516h502v-506q68 68 140.5 104.5t177.5 36.5q213 0 325.5 -164t112.5 -416q0 -113 -28.5 -217t-88 -193t-162 -142.5t-237.5 -53.5q-70 0 -142.5 22.5t-107.5 57.5v-45h-492zM604 381q0 -92 103 -92q51 0 82.5 43t40 91t8.5 99q0 240 -123 240q-41 0 -78 -37 q-33 -35 -33 -90v-254z" />
<glyph unicode="c" horiz-adv-x="1021" d="M45 543q0 272 165 440t435 168q209 0 359 -47l-86 -356q-74 37 -140 36q-104 0 -157.5 -63.5t-53.5 -169.5q0 -100 57.5 -163.5t157.5 -63.5q78 0 152 34l76 -344q-154 -49 -328 -49q-281 0 -459 151t-178 427z" />
<glyph unicode="d" horiz-adv-x="1439" d="M45 555q0 119 28.5 222.5t88 188.5t162 135t237.5 50q150 0 234 -72v437h503v-1174q0 -72 45 -72q20 0 37 11l13 -275q-133 -27 -238 -26q-252 0 -313 176q-137 -190 -359 -191q-209 0 -323.5 169t-114.5 421zM567 602q0 -248 117 -248q43 0 80 37q33 35 33 90v254 q0 92 -107 92q-123 0 -123 -225z" />
<glyph unicode="e" horiz-adv-x="1290" d="M45 549q0 283 175 442.5t460 159.5q264 0 426 -143q147 -130 147 -355q0 -23 -2 -47q-135 -76 -326.5 -121t-377.5 -47l4 -14q23 -76 88.5 -106.5t196.5 -30.5q164 0 319 59l57 -321q-199 -59 -442 -60q-152 0 -276.5 31t-228 96.5t-162 182t-58.5 274.5zM541 711 q156 6 247 49q0 51 -32.5 84t-81.5 33q-68 0 -100.5 -46t-32.5 -120z" />
<glyph unicode="f" horiz-adv-x="868" d="M33 791v303h125v20q0 205 164.5 314.5t406.5 109.5q184 0 318 -29l-58 -338q-78 35 -170 35q-86 0 -123 -28.5t-37 -65.5v-18h207v-303h-202v-1201h-506v1201h-125z" />
<glyph unicode="g" horiz-adv-x="1247" d="M8 129q43 199 193 358q-154 96 -154 285q0 164 134 271.5t413 107.5q147 0 252 -31q20 102 94 168t182 66q49 0 117 -15l-37 -327q-37 10 -65 10q-51 0 -80 -29q76 -90 76 -221q0 -188 -156 -280.5t-393 -92.5q-72 0 -148 11q-33 -33 -43 -76q16 -31 88 -31h367 q158 0 268.5 -74.5t110.5 -236.5q0 -121 -65.5 -210t-171 -135t-213 -66.5t-216.5 -20.5q-217 0 -369.5 61.5t-152.5 188.5q0 76 57 110h338q-10 -27 -10 -41q0 -43 44 -66.5t114 -23.5q80 0 118.5 28.5t38.5 69.5q0 70 -94 70h-301q-281 0 -336 172zM494 772 q0 -55 22.5 -97t71.5 -42t73.5 44t24.5 97q0 55 -22.5 97t-71.5 42t-73.5 -44t-24.5 -97z" />
<glyph unicode="h" horiz-adv-x="1427" d="M102 0v1516h502v-512q139 147 336 147q201 0 295 -102.5t94 -274.5v-774h-500v639q0 117 -104 117q-45 0 -84 -35q-25 -25 -31 -43.5t-6 -59.5v-618h-502z" />
<glyph unicode="i" horiz-adv-x="759" d="M113 1356q0 84 67.5 141t194.5 57q121 0 189.5 -54t68.5 -144q0 -92 -70.5 -144.5t-187.5 -52.5t-189.5 53.5t-72.5 143.5zM121 365v751h504v-774q0 -72 45 -72q20 0 37 11l12 -275q-133 -27 -219 -26q-197 0 -288 95t-91 290z" />
<glyph unicode="j" horiz-adv-x="737" d="M-129 -111q133 0 194.5 69t61.5 210v948h504v-1034q0 -233 -187.5 -369.5t-547.5 -152.5zM119 1356q0 84 67.5 141t194.5 57q121 0 189.5 -54t68.5 -144q0 -92 -70.5 -144.5t-187.5 -52.5t-189.5 53.5t-72.5 143.5z" />
<glyph unicode="k" horiz-adv-x="1413" d="M102 0v1516h504v-764q174 131 242 364h538q-92 -302 -313 -498q80 -160 117 -227q31 -61 57.5 -90t63.5 -29q27 0 47 11l14 -279q-127 -25 -293 -24q-150 0 -227.5 44t-130.5 171q-6 14 -62 167q-29 -14 -53 -22v-340h-504z" />
<glyph unicode="l" horiz-adv-x="751" d="M113 365v1151h503v-1174q0 -72 46 -72q20 0 36 11l13 -275q-133 -27 -219 -26q-197 0 -288 95t-91 290z" />
<glyph unicode="m" horiz-adv-x="2095" d="M102 0v1116h457v-153q152 188 371 188q246 0 332 -182q152 182 364 182q190 0 280.5 -102.5t90.5 -274.5v-774h-500v639q0 117 -92 117q-41 0 -72 -35q-33 -37 -33 -103v-618h-499v639q0 117 -92 117q-41 0 -72 -35q-33 -37 -33 -103v-618h-502z" />
<glyph unicode="n" horiz-adv-x="1427" d="M102 0v1116h457v-153q158 188 381 188q201 0 295 -102.5t94 -274.5v-774h-500v639q0 117 -104 117q-45 0 -84 -35q-25 -25 -31 -43.5t-6 -59.5v-618h-502z" />
<glyph unicode="o" horiz-adv-x="1413" d="M45 541q0 293 170 453.5t492 160.5q324 0 492.5 -147.5t168.5 -432.5q0 -293 -170 -453.5t-491 -160.5q-324 0 -493 147.5t-169 432.5zM567 543q0 -113 34 -186.5t106 -73.5q139 0 139 290q0 113 -34 187t-105 74q-140 0 -140 -291z" />
<glyph unicode="p" horiz-adv-x="1404" d="M102 -410v1526h457v-160q139 195 363 195q213 0 325.5 -164t112.5 -416q0 -113 -28.5 -217t-88 -193t-162 -142.5t-237.5 -53.5q-147 0 -238 80v-455h-504zM604 381q0 -92 103 -92q51 0 82.5 43t40 91t8.5 99q0 240 -123 240q-41 0 -78 -37q-33 -35 -33 -90v-254z" />
<glyph unicode="q" horiz-adv-x="1439" d="M45 555q0 119 28.5 222.5t88 188.5t162 135t237.5 50q166 0 246 -80v45h491v-1194q0 -72 45 -72q20 0 37 11l13 -275q-133 -27 -219 -26q-197 0 -287 95t-90 290v170q-129 -150 -314 -150q-211 0 -324.5 169t-113.5 421zM567 602q0 -248 117 -248q43 0 80 37q33 35 33 90 v254q0 92 -107 92q-123 0 -123 -225z" />
<glyph unicode="r" horiz-adv-x="1042" d="M51 1110q133 27 238 27q82 0 141 -16.5t92 -47.5t48.5 -55.5t27.5 -56.5q47 59 80 91.5t99.5 65.5t144.5 33q70 0 127 -18l-68 -435q-66 51 -156 52q-92 0 -139 -48q-23 -23 -31 -49t-8 -88v-565h-502v774q0 72 -45 72q-20 0 -37 -10z" />
<glyph unicode="s" horiz-adv-x="993" d="M20 12l62 334q131 -53 256 -53q92 0 92 49q0 39 -78 64l-78 24q-104 33 -174.5 110.5t-70.5 198.5q0 184 141 298t393 114q170 0 373 -45l-57 -315q-141 47 -261 47q-74 0 -73 -43q0 -29 61 -50l70 -22q66 -23 113 -45.5t92 -59t68.5 -91t23.5 -126.5 q0 -211 -155.5 -323.5t-409.5 -112.5q-206 0 -388 47z" />
<glyph unicode="t" horiz-adv-x="870" d="M4 791v303h129v211l502 112v-323h203v-303h-203v-367q0 -131 110 -131q49 0 95 16l20 -315q-131 -29 -299 -29q-217 0 -324.5 102.5t-107.5 319.5v404h-125z" />
<glyph unicode="u" horiz-adv-x="1437" d="M98 342v774h500v-639q0 -117 92 -117q41 0 72 35q33 37 33 103v618h501v-774q0 -72 45 -72q20 0 37 11l13 -275q-133 -27 -238 -26q-254 0 -313 170q-147 -184 -371 -185q-190 0 -280.5 102.5t-90.5 274.5z" />
<glyph unicode="v" horiz-adv-x="1288" d="M4 1116h537l69 -393q31 -176 52 -397h4l53 405l59 385h506l-332 -1116h-616z" />
<glyph unicode="w" horiz-adv-x="1818" d="M8 1116h477l41 -430q10 -102 25 -328h4q6 43 68 330l53 244h506l55 -252l36.5 -181t29.5 -141h4q14 225 24 328l41 430h438l-200 -1116h-582l-63 231q-31 109 -54 246h-4q-27 -145 -55 -250l-61 -227h-582z" />
<glyph unicode="x" horiz-adv-x="1245" d="M12 1102q135 49 281 49q236 0 352 -152q125 152 336 152q129 0 248 -47l-78 -338q-53 31 -113 31q-92 0 -136 -66.5t-44 -179.5q0 -106 48 -174t134 -68q61 0 125 33l68 -328q-135 -49 -281 -49q-236 0 -352 152q-125 -152 -336 -152q-129 0 -248 47l78 338 q53 -31 113 -31q92 0 136 67t44 179q0 106 -48 174t-134 68q-61 0 -125 -33z" />
<glyph unicode="y" horiz-adv-x="1304" d="M41 1116h518q8 -350 123 -702h4q102 311 102 702h472q-43 -416 -151 -722t-266.5 -486t-347 -265t-413.5 -85l-4 336q219 6 344 104q-303 422 -381 1118z" />
<glyph unicode="z" horiz-adv-x="1218" d="M51 0v340l420 446h-393v330h1042v-354l-422 -432h138q68 0 67 45q0 20 -10 37l274 12q31 -92 31 -172q0 -72 -25.5 -124t-68.5 -78.5t-88 -38t-92 -11.5h-873z" />
<glyph unicode="{" horiz-adv-x="860" d="M12 475v279q207 0 207 272v143q0 125 50 197t188.5 111t390.5 39v-306q-123 0 -174 -49t-51 -143v-76q0 -125 -81 -218t-198 -110q117 -16 198 -109t81 -218v-76q0 -94 51 -143.5t174 -49.5v-305q-252 0 -390.5 39t-188.5 110.5t-50 196.5v144q0 272 -207 272z" />
<glyph unicode="|" horiz-adv-x="573" d="M106 -442v2048h361v-2048h-361z" />
<glyph unicode="}" horiz-adv-x="860" d="M12 18q123 0 174.5 49.5t51.5 143.5v76q0 125 80.5 218t197.5 109q-117 16 -197.5 109.5t-80.5 218.5v76q0 94 -51.5 143t-174.5 49v306q252 0 390.5 -39t188.5 -111t50 -197v-143q0 -272 207 -272v-279q-207 0 -207 -272v-144q0 -125 -50 -196.5t-188.5 -110.5 t-390.5 -39v305z" />
<glyph unicode="~" d="M92 473v395q123 117 281 117q92 0 257 -71.5t240 -71.5q158 0 287 145v-395q-123 -117 -280 -117q-92 0 -257 71.5t-241 71.5q-158 0 -287 -145z" />
<glyph unicode="&#xa1;" horiz-adv-x="737" d="M106 -383q0 193 14.5 452t26.5 423l15 161h411q57 -604 58 -1036h-525zM115 934q0 102 67.5 159.5t182 57.5t185.5 -59.5t71 -157.5q0 -90 -67 -153.5t-189 -63.5q-119 0 -184.5 58.5t-65.5 158.5z" />
<glyph unicode="&#xa2;" d="M123 543q0 260 160.5 427t427.5 181v235h274v-243q123 -12 211 -39l-94 -344q-51 25 -117 35v-482q76 10 133 35l84 -334q-90 -27 -217 -41v-227h-274v223q-264 23 -426 171.5t-162 402.5zM598 551q0 -129 113 -197v406q-113 -68 -113 -209z" />
<glyph unicode="&#xa3;" d="M133 444v271h78q-14 41 -14 92q0 96 50 168t132 107.5t167 52t175 16.5q252 0 448 -68l-127 -321q-76 51 -168 51q-121 0 -126 -80q-2 -8 0 -18h278v-271h-190q2 -12 2 -38q0 -25 -20.5 -48.5t-45.5 -33.5h402v-324h-1008v313q55 0 113.5 28t58.5 71q0 6 -1 16t-1 16 h-203z" />
<glyph unicode="&#xa4;" horiz-adv-x="1024" d="M20 -205v533h697v-287h-185v102h-327v-163h799v-185h-984zM20 389v553h185v-184h799v-185h-799v-184h-185zM20 1004v430h185v-246h307v205h184v-205h308v-184h-984z" />
<glyph unicode="&#xa5;" d="M51 1116h547l98 -340l72 340h420l-223 -512h204v-272h-284v-332h-520v332h-295v272h211z" />
<glyph unicode="&#xa6;" horiz-adv-x="573" d="M80 0v596h414v-596h-414zM80 852v594h414v-594h-414z" />
<glyph unicode="&#xa7;" d="M39 547q0 86 53 177t129 130q-39 33 -62.5 103.5t-23.5 127.5q0 109 49 190t132 125t175.5 64.5t196.5 20.5q215 0 414 -68l-107 -364q-63 33 -154 57.5t-157 24.5q-88 0 -88 -43q0 -29 92 -70l266 -113q117 -49 186.5 -141t69.5 -215q0 -92 -49 -177t-129 -132 q84 -94 84 -228q0 -225 -167 -340.5t-402 -115.5q-244 0 -414 47l68 379q141 -57 307 -58q141 0 141 54q0 31 -71 63l-324 156q-215 104 -215 346zM477 600q2 -72 94 -113l82 -36q18 -8 51 -24.5t39 -18.5q25 36 25 79q0 90 -109 134l-73 28q-49 18 -76 35q-33 -33 -33 -84z " />
<glyph unicode="&#xa8;" d="M147 1362q0 80 58.5 136t169.5 56q104 0 163.5 -52t59.5 -140t-61.5 -139.5t-162 -51.5t-164 52.5t-63.5 138.5zM651 1362q0 80 58.5 136t169.5 56q104 0 163.5 -52t59.5 -140t-61.5 -139.5t-162 -51.5t-164 52.5t-63.5 138.5z" />
<glyph unicode="&#x308;" d="M147 1362q0 80 58.5 136t169.5 56q104 0 163.5 -52t59.5 -140t-61.5 -139.5t-162 -51.5t-164 52.5t-63.5 138.5zM651 1362q0 80 58.5 136t169.5 56q104 0 163.5 -52t59.5 -140t-61.5 -139.5t-162 -51.5t-164 52.5t-63.5 138.5z" />
<glyph unicode="&#xa9;" horiz-adv-x="1734" d="M86 725q0 322 212 550t570.5 228t570.5 -228t212 -550q0 -346 -215 -562t-567.5 -216t-567.5 216t-215 562zM285 725q0 -289 164.5 -456t418.5 -167t419 167t165 456q0 291 -166 454.5t-418 163.5t-417.5 -163.5t-165.5 -454.5zM422 709q0 229 148.5 348t385.5 119 q123 0 238 -29l-68 -254q-68 31 -137 31q-100 0 -159.5 -54.5t-59.5 -152.5q0 -94 60.5 -148.5t158.5 -54.5q76 0 146 33l63 -244q-113 -37 -285 -37q-217 0 -354 116t-137 327z" />
<glyph unicode="&#xaa;" horiz-adv-x="976" d="M41 885q0 260 428 260q55 0 55 31v6q0 70 -151 69q-121 0 -226 -51l-49 236q164 49 344 49q428 0 428 -297v-273q0 -49 31 -49l25 6l10 -200q-92 -18 -174 -19q-162 0 -201 95q-96 -102 -264 -103q-111 0 -183.5 65.5t-72.5 174.5zM383 907q0 -59 57 -59q43 0 66 26 q20 23 20 62v41h-37q-106 0 -106 -70z" />
<glyph unicode="&#xab;" horiz-adv-x="1382" d="M20 551l312 418h422l-232 -418l232 -418h-422zM629 551l311 418h422l-232 -418l232 -418h-422z" />
<glyph unicode="&#xac;" horiz-adv-x="1024" d="M20 -205v533h697v-287h-185v102h-327v-163h799v-185h-984zM20 389v553h185v-184h799v-185h-799v-184h-185zM20 1004v430h185v-246h307v205h184v-205h308v-184h-984z" />
<glyph unicode="&#xad;" horiz-adv-x="573" d="M18 408v331h537v-331h-537z" />
<glyph unicode="&#xae;" horiz-adv-x="1734" d="M86 725q0 322 212 550t570.5 228t570.5 -228t212 -550q0 -346 -215 -562t-567.5 -216t-567.5 216t-215 562zM285 725q0 -289 164.5 -456t418.5 -167t419 167t165 456q0 291 -166 454.5t-418 163.5t-417.5 -163.5t-165.5 -454.5zM471 328v823h414q57 0 104 -4t105.5 -19.5 t98.5 -42t67.5 -77t27.5 -119.5q0 -82 -52 -135.5t-114 -75.5q160 -289 197 -350h-373l-90 229q-14 33 -24.5 41t-26.5 8h-17v-278h-317zM788 774h58q111 0 110 84q0 35 -20.5 53.5t-42 21.5t-55.5 3h-50v-162z" />
<glyph unicode="&#xaf;" d="M240 1249v254h770v-254h-770z" />
<glyph unicode="&#x304;" d="M240 1249v254h770v-254h-770z" />
<glyph unicode="&#x2c9;" d="M240 1249v254h770v-254h-770z" />
<glyph unicode="&#xb0;" d="M252 1047q0 158 107.5 266t263 108t265 -109.5t109.5 -265t-109.5 -264t-265 -108.5t-263 108.5t-107.5 264.5zM502 1046.5q0 -57.5 32.5 -99.5t86 -42t87 42t33.5 99.5t-33.5 100.5t-87 43t-86 -43t-32.5 -100.5z" />
<glyph unicode="&#xb1;" horiz-adv-x="1024" d="M20 -205v533h697v-287h-185v102h-327v-163h799v-185h-984zM20 389v553h185v-184h799v-185h-799v-184h-185zM20 1004v430h185v-246h307v205h184v-205h308v-184h-984z" />
<glyph unicode="&#xb2;" horiz-adv-x="821" d="M41 1403q158 59 336 59q160 0 273.5 -81t113.5 -234q0 -100 -56.5 -172t-158.5 -141q-12 -8 -41 -25.5t-47.5 -31t-30.5 -29.5h340v-238h-709v195q18 59 65.5 109t143.5 120q39 27 61.5 46t43 52t20.5 68q0 51 -35.5 81.5t-89.5 30.5q-78 0 -141 -43z" />
<glyph unicode="&#xb3;" horiz-adv-x="806" d="M20 535l78 219q59 -29 156 -29q133 0 133 92q0 76 -123 76h-102v205h88q113 0 112.5 73.5t-122.5 73.5q-72 0 -134 -31l-63 226q145 35 309 35q88 0 164 -19.5t135.5 -77t59.5 -145.5q0 -152 -148 -203v-2q86 -14 133 -76.5t47 -154.5q0 -86 -39.5 -147.5t-108.5 -92.5 t-140.5 -44t-153.5 -13q-160 0 -281 35z" />
<glyph unicode="&#xb4;" d="M272 1198l228 318h477l-369 -318h-336z" />
<glyph unicode="&#x301;" d="M272 1198l228 318h477l-369 -318h-336z" />
<glyph unicode="&#x2ca;" d="M272 1198l228 318h477l-369 -318h-336z" />
<glyph unicode="&#xb5;" horiz-adv-x="1024" d="M20 -205v533h697v-287h-185v102h-327v-163h799v-185h-984zM20 389v553h185v-184h799v-185h-799v-184h-185zM20 1004v430h185v-246h307v205h184v-205h308v-184h-984z" />
<glyph unicode="&#xb6;" horiz-adv-x="1519" d="M10 831q0 276 160 445.5t418 169.5h98v-1192h-188q-229 0 -358.5 163.5t-129.5 413.5zM557 -436l12 327q4 0 12.5 -1t14.5 -1q125 0 173 61.5t48 194.5v1301h316q72 0 71 45q0 20 -10 37l274 12q31 -92 31 -186q0 -119 -56.5 -169t-123.5 -50h-19v-1037 q0 -287 -159.5 -412.5t-454.5 -125.5q-51 0 -129 4z" />
<glyph unicode="&#xb7;" horiz-adv-x="573" d="M35 580q0 90 66.5 153.5t189.5 63.5q119 0 184.5 -58.5t65.5 -158.5q0 -102 -67.5 -160t-182.5 -58t-185.5 60t-70.5 158z" />
<glyph unicode="&#x2219;" horiz-adv-x="573" d="M35 580q0 90 66.5 153.5t189.5 63.5q119 0 184.5 -58.5t65.5 -158.5q0 -102 -67.5 -160t-182.5 -58t-185.5 60t-70.5 158z" />
<glyph unicode="&#xb8;" d="M412 -410q117 115 116 226q0 63 -32 110h344q23 -45 22 -78q0 -147 -155 -258h-295z" />
<glyph unicode="&#x327;" d="M412 -410q117 115 116 226q0 63 -32 110h344q23 -45 22 -78q0 -147 -155 -258h-295z" />
<glyph unicode="&#xb9;" horiz-adv-x="831" d="M6 1282q174 66 326 164h303v-928h-338v627q-53 -37 -193 -98z" />
<glyph unicode="&#xba;" horiz-adv-x="1021" d="M41 1051q0 207 122 322.5t349 115.5q229 0 349 -106.5t120 -307.5q0 -207 -121 -320.5t-348 -113.5q-229 0 -350 104.5t-121 305.5zM422 1057q0 -170 90 -170t90 188q0 168 -90 168t-90 -186z" />
<glyph unicode="&#xbb;" horiz-adv-x="1382" d="M20 133l232 418l-232 418h422l312 -418l-312 -418h-422zM629 133l231 418l-231 418h422l311 -418l-311 -418h-422z" />
<glyph unicode="&#xbc;" horiz-adv-x="1902" d="M6 1282q174 66 326 164h303v-928h-338v627q-53 -37 -193 -98zM358 0l867 1446h325l-866 -1446h-326zM1059 127v258l301 543h420v-555h71v-246h-71v-127h-310v127h-411zM1323 373h147v301h-6q-10 -37 -53 -125z" />
<glyph unicode="&#xbd;" horiz-adv-x="2029" d="M6 1282q174 66 326 164h303v-928h-338v627q-53 -37 -193 -98zM358 0l867 1446h325l-866 -1446h-326zM1260 893q158 59 335 59q160 0 273.5 -80.5t113.5 -234.5q0 -100 -56 -172t-159 -141q-12 -8 -40.5 -25.5t-47 -31t-30.5 -29.5h340v-238h-709v195q18 59 65.5 109 t143.5 120q39 27 61.5 46t43 52t20.5 68q0 51 -36 81.5t-89 30.5q-76 0 -141 -43z" />
<glyph unicode="&#xbe;" horiz-adv-x="1896" d="M20 535l78 219q59 -29 156 -29q133 0 133 92q0 76 -123 76h-102v205h88q113 0 112.5 73.5t-122.5 73.5q-72 0 -134 -31l-63 226q145 35 309 35q88 0 164 -19.5t135.5 -77t59.5 -145.5q0 -152 -148 -203v-2q86 -14 133 -76.5t47 -154.5q0 -86 -39.5 -147.5t-108.5 -92.5 t-140.5 -44t-153.5 -13q-160 0 -281 35zM377 0l866 1446h326l-867 -1446h-325zM1063 127v258l301 543h420v-555h71v-246h-71v-127h-309v127h-412zM1327 373h148v301h-7q-10 -37 -53 -125z" />
<glyph unicode="&#xbf;" d="M143 20q0 168 115 289q80 84 256 178q16 86 16 166h402l24 -309q-150 -66 -217 -133q-63 -63 -63 -133q0 -66 54 -94.5t126 -28.5q106 0 213 51l92 -352q-195 -55 -432 -55q-109 0 -206 21.5t-186 67.5t-141.5 131.5t-52.5 200.5zM483 933.5q0 106.5 71 162t179.5 55.5 t182 -56.5t73.5 -161t-74.5 -160.5t-181.5 -56q-109 0 -179.5 55t-70.5 161.5z" />
<glyph unicode="&#xc0;" horiz-adv-x="1677" d="M29 0q143 891 479 1446h659q344 -588 482 -1446h-596q-16 135 -27 207h-461q-18 -121 -28 -207h-508zM330 1843h477l227 -317h-336zM633 563h328q-57 252 -162 512h-4q-103 -258 -162 -512z" />
<glyph unicode="&#xc1;" horiz-adv-x="1677" d="M29 0q143 891 479 1446h659q344 -588 482 -1446h-596q-16 135 -27 207h-461q-18 -121 -28 -207h-508zM633 563h328q-57 252 -162 512h-4q-103 -258 -162 -512zM662 1526l227 317h477l-369 -317h-335z" />
<glyph unicode="&#xc2;" horiz-adv-x="1677" d="M29 0q143 891 479 1446h659q344 -588 482 -1446h-596q-16 135 -27 207h-461q-18 -121 -28 -207h-508zM377 1526l248 317h426l247 -317h-335l-127 121l-123 -121h-336zM633 563h328q-57 252 -162 512h-4q-103 -258 -162 -512z" />
<glyph unicode="&#xc3;" horiz-adv-x="1677" d="M29 0q143 891 479 1446h659q344 -588 482 -1446h-596q-16 135 -27 207h-461q-18 -121 -28 -207h-508zM418 1526q25 317 256 317q47 0 141 -26.5t125 -26.5q55 0 68 53h262q-25 -317 -256 -317q-47 0 -141.5 26.5t-124.5 26.5q-55 0 -68 -53h-262zM633 563h328 q-57 252 -162 512h-4q-103 -258 -162 -512z" />
<glyph unicode="&#xc4;" horiz-adv-x="1677" d="M29 0q143 891 479 1446h659q344 -588 482 -1446h-596q-16 135 -27 207h-461q-18 -121 -28 -207h-508zM371 1690q0 80 58 136t169 56q104 0 163.5 -52t59.5 -140t-61.5 -139.5t-161.5 -51.5t-163.5 52.5t-63.5 138.5zM633 563h328q-57 252 -162 512h-4 q-103 -258 -162 -512zM874 1690q0 80 58.5 136t169.5 56q104 0 163.5 -52t59.5 -140t-61.5 -139.5t-162 -51.5t-164 52.5t-63.5 138.5z" />
<glyph unicode="&#xc5;" horiz-adv-x="1677" d="M29 0q143 891 479 1446h659q344 -588 482 -1446h-596q-16 135 -27 207h-461q-18 -121 -28 -207h-508zM569 1706q0 115 68 178.5t192 63.5q260 0 261 -228q0 -115 -68 -178t-193 -63q-260 0 -260 227zM633 563h328q-57 252 -162 512h-4q-103 -258 -162 -512zM770 1708 q0 -80 59.5 -80t59.5 90q0 82 -59.5 82t-59.5 -92z" />
<glyph unicode="&#xc6;" horiz-adv-x="2199" d="M37 0q160 899 506 1446h1464v-381h-604l43 -191h569v-348h-487l33 -145h518v-381h-998l-59 340h-418q-31 -154 -57 -340h-510zM694 698h264l-73 422h-39q-84 -197 -152 -422z" />
<glyph unicode="&#xc7;" horiz-adv-x="1402" d="M61 707q0 383 245 580.5t638 197.5q188 0 391 -47l-94 -408q-121 57 -244 57q-176 0 -279.5 -98t-103.5 -272q0 -170 106.5 -265.5t278.5 -95.5q141 0 256 58l86 -387q-184 -61 -469 -62q-356 0 -583.5 195t-227.5 547zM645 -410q117 115 117 226q0 63 -33 110h344 q23 -45 23 -78q0 -147 -156 -258h-295z" />
<glyph unicode="&#xc8;" horiz-adv-x="1341" d="M123 426v1020h1067v-381h-528v-147h507v-349h-507v-90q0 -74 45 -98h514v-381h-902q-196 111 -196 426zM160 1843h477l227 -317h-336z" />
<glyph unicode="&#xc9;" horiz-adv-x="1341" d="M123 426v1020h1067v-381h-528v-147h507v-349h-507v-90q0 -74 45 -98h514v-381h-902q-196 111 -196 426zM446 1526l228 317h477l-369 -317h-336z" />
<glyph unicode="&#xca;" horiz-adv-x="1341" d="M123 426v1020h1067v-381h-528v-147h507v-349h-507v-90q0 -74 45 -98h514v-381h-902q-196 111 -196 426zM190 1526l248 317h426l248 -317h-336l-127 121l-123 -121h-336z" />
<glyph unicode="&#xcb;" horiz-adv-x="1341" d="M123 426v1020h1067v-381h-528v-147h507v-349h-507v-90q0 -74 45 -98h514v-381h-902q-196 111 -196 426zM176 1690q0 80 58.5 136t168.5 56q104 0 164 -52t60 -140t-61.5 -139.5t-162 -51.5t-164 52.5t-63.5 138.5zM680 1690q0 80 58.5 136t168.5 56q104 0 163.5 -52 t59.5 -140t-61 -139.5t-161.5 -51.5t-164 52.5t-63.5 138.5z" />
<glyph unicode="&#xcc;" horiz-adv-x="800" d="M-96 1843h477l227 -317h-336zM131 0v1446h539v-1446h-539z" />
<glyph unicode="&#xcd;" horiz-adv-x="800" d="M131 0v1446h539v-1446h-539zM190 1526l228 317h477l-369 -317h-336z" />
<glyph unicode="&#xce;" horiz-adv-x="800" d="M-53 1524l248 317h426l247 -317h-336l-126 121l-123 -121h-336zM131 0v1446h539v-1446h-539z" />
<glyph unicode="&#xcf;" horiz-adv-x="800" d="M-82 1688q0 80 58.5 136t168.5 56q104 0 164 -52t60 -140.5t-61.5 -139.5t-162 -51t-164 52.5t-63.5 138.5zM131 0v1446h539v-1446h-539zM422 1688q0 80 58.5 136t168.5 56q104 0 163.5 -52t59.5 -140.5t-61 -139.5t-161.5 -51t-164 52.5t-63.5 138.5z" />
<glyph unicode="&#xd0;" horiz-adv-x="1755" d="M20 594v332h123v520h682q61 0 103.5 -1t117 -8t129 -18.5t126 -36t123 -58.5t105.5 -87t88 -119.5t55.5 -159t21.5 -202.5q0 -184 -50.5 -321.5t-131 -218.5t-200.5 -131t-238 -67.5t-263 -17.5h-668v594h-123zM682 354h90q184 0 279.5 85t95.5 294q0 358 -385 359h-80 v-166h172v-332h-172v-240z" />
<glyph unicode="&#xd1;" horiz-adv-x="1730" d="M123 0v1446h559l285 -397q137 -193 151 -256h4v653h486v-1446h-545l-299 416q-123 172 -152 246h-4v-662h-485zM473 1526q25 317 256 317q49 0 143.5 -26.5t122.5 -26.5q55 0 68 53h262q-25 -317 -256 -317q-49 0 -143.5 26.5t-122.5 26.5q-55 0 -68 -53h-262z" />
<glyph unicode="&#xd2;" horiz-adv-x="1742" d="M61 725q0 162 50.5 295t130.5 218t188.5 143.5t219 83t224.5 24.5q168 0 307.5 -41t255 -127t180 -237.5t64.5 -358.5q0 -162 -50 -295t-130 -218t-188.5 -143.5t-219 -83t-225.5 -24.5q-168 0 -307 41t-255 127t-180.5 237.5t-64.5 358.5zM344 1843h477l228 -317h-336z M610 727q0 -395 258 -395q139 0 202 108.5t63 282.5q0 395 -259 395q-139 0 -201.5 -108.5t-62.5 -282.5z" />
<glyph unicode="&#xd3;" horiz-adv-x="1742" d="M61 725q0 162 50.5 295t130.5 218t188.5 143.5t219 83t224.5 24.5q168 0 307.5 -41t255 -127t180 -237.5t64.5 -358.5q0 -162 -50 -295t-130 -218t-188.5 -143.5t-219 -83t-225.5 -24.5q-168 0 -307 41t-255 127t-180.5 237.5t-64.5 358.5zM610 727q0 -395 258 -395 q139 0 202 108.5t63 282.5q0 395 -259 395q-139 0 -201.5 -108.5t-62.5 -282.5zM700 1526l228 317h477l-369 -317h-336z" />
<glyph unicode="&#xd4;" horiz-adv-x="1742" d="M61 725q0 162 50.5 295t130.5 218t188.5 143.5t219 83t224.5 24.5q168 0 307.5 -41t255 -127t180 -237.5t64.5 -358.5q0 -162 -50 -295t-130 -218t-188.5 -143.5t-219 -83t-225.5 -24.5q-168 0 -307 41t-255 127t-180.5 237.5t-64.5 358.5zM430 1526l248 317h426 l248 -317h-336l-127 121l-123 -121h-336zM610 727q0 -395 258 -395q139 0 202 108.5t63 282.5q0 395 -259 395q-139 0 -201.5 -108.5t-62.5 -282.5z" />
<glyph unicode="&#xd5;" horiz-adv-x="1742" d="M61 725q0 162 50.5 295t130.5 218t188.5 143.5t219 83t224.5 24.5q168 0 307.5 -41t255 -127t180 -237.5t64.5 -358.5q0 -162 -50 -295t-130 -218t-188.5 -143.5t-219 -83t-225.5 -24.5q-168 0 -307 41t-255 127t-180.5 237.5t-64.5 358.5zM459 1526q25 317 256 317 q47 0 141 -26.5t125 -26.5q55 0 68 53h262q-25 -317 -256 -317q-47 0 -141.5 26.5t-125.5 26.5q-55 0 -67 -53h-262zM610 727q0 -395 258 -395q139 0 202 108.5t63 282.5q0 395 -259 395q-139 0 -201.5 -108.5t-62.5 -282.5z" />
<glyph unicode="&#xd6;" horiz-adv-x="1742" d="M61 725q0 162 50.5 295t130.5 218t188.5 143.5t219 83t224.5 24.5q168 0 307.5 -41t255 -127t180 -237.5t64.5 -358.5q0 -162 -50 -295t-130 -218t-188.5 -143.5t-219 -83t-225.5 -24.5q-168 0 -307 41t-255 127t-180.5 237.5t-64.5 358.5zM406 1690q0 80 58 136t169 56 q104 0 163.5 -52t59.5 -140t-61.5 -139.5t-162 -51.5t-163.5 52.5t-63 138.5zM610 727q0 -395 258 -395q139 0 202 108.5t63 282.5q0 395 -259 395q-139 0 -201.5 -108.5t-62.5 -282.5zM909 1690q0 80 58.5 136t169.5 56q104 0 163.5 -52t59.5 -140t-61.5 -139.5t-162 -51.5 t-164 52.5t-63.5 138.5z" />
<glyph unicode="&#xd7;" d="M51 422l303 303l-301 301l271 270l301 -301l307 308l266 -269l-305 -305l299 -299l-270 -268l-299 299l-306 -305z" />
<glyph unicode="&#xd8;" horiz-adv-x="1742" d="M61 725q0 162 50.5 295t130.5 218t188.5 143.5t219 83t224.5 24.5q260 0 443 -90l133 143l162 -156l-113 -122q182 -195 182 -539q0 -162 -50 -295t-130 -218t-188.5 -143.5t-219 -83t-225.5 -24.5q-279 0 -473 109l-141 -150l-162 154l129 137q-160 188 -160 514z M610 727q0 -33 4 -90l402 436q-57 45 -142 45q-139 0 -201.5 -108.5t-62.5 -282.5zM700 401q63 -70 168 -69q139 0 202 108.5t63 282.5q0 61 -11 133z" />
<glyph unicode="&#xd9;" horiz-adv-x="1650" d="M102 571v875h539v-918q0 -104 67.5 -155t176.5 -51q59 0 149 22v1102h494v-1434q-324 -49 -610 -49q-137 0 -248 14.5t-220.5 55.5t-183 107.5t-119 176t-45.5 254.5zM315 1843h478l227 -317h-336z" />
<glyph unicode="&#xda;" horiz-adv-x="1650" d="M102 571v875h539v-918q0 -104 67.5 -155t176.5 -51q59 0 149 22v1102h494v-1434q-324 -49 -610 -49q-137 0 -248 14.5t-220.5 55.5t-183 107.5t-119 176t-45.5 254.5zM659 1526l228 317h477l-369 -317h-336z" />
<glyph unicode="&#xdb;" horiz-adv-x="1650" d="M102 571v875h539v-918q0 -104 67.5 -155t176.5 -51q59 0 149 22v1102h494v-1434q-324 -49 -610 -49q-137 0 -248 14.5t-220.5 55.5t-183 107.5t-119 176t-45.5 254.5zM365 1526l247 317h426l248 -317h-336l-127 121l-123 -121h-335z" />
<glyph unicode="&#xdc;" horiz-adv-x="1650" d="M102 571v875h539v-918q0 -104 67.5 -155t176.5 -51q59 0 149 22v1102h494v-1434q-324 -49 -610 -49q-137 0 -248 14.5t-220.5 55.5t-183 107.5t-119 176t-45.5 254.5zM360 1690q0 80 58.5 136t169.5 56q104 0 163.5 -52t59.5 -140t-61.5 -139.5t-162 -51.5t-164 52.5 t-63.5 138.5zM864 1690q0 80 58.5 136t169.5 56q104 0 163.5 -52t59.5 -140t-61.5 -139.5t-162 -51.5t-164 52.5t-63.5 138.5z" />
<glyph unicode="&#xdd;" horiz-adv-x="1579" d="M45 1446h590q74 -326 190 -555h4q104 211 179 555h526q-139 -535 -473 -918v-528h-541v528q-332 383 -475 918zM662 1526l227 317h477l-369 -317h-335z" />
<glyph unicode="&#xde;" horiz-adv-x="1503" d="M123 0v1446h539v-82h169q258 0 400 -68q244 -119 244 -422q0 -131 -41 -230t-102.5 -155.5t-148.5 -91.5t-165 -46t-164 -11h-192v-340h-539zM662 680h122q61 0 108.5 40t47.5 132q0 98 -48 135t-110 37h-120v-344z" />
<glyph unicode="&#xdf;" horiz-adv-x="1583" d="M102 -410v1420q0 145 62.5 251.5t168 165t225.5 85t255 26.5q113 0 216.5 -16.5t212 -55.5t174 -121.5t65.5 -199.5q0 -170 -199 -240q-115 -39 -115 -94q0 -39 64 -66l51 -22q139 -59 210 -131t71 -203q0 -203 -140.5 -313.5t-388.5 -110.5q-227 0 -391 47l59 334 q121 -53 232 -53q92 0 92 49q0 20 -18.5 33.5t-59.5 30.5l-61 24q-123 49 -184.5 117.5t-61.5 183.5q0 172 168 254q59 29 90 56.5t31 70.5q0 61 -41 94t-96 33q-188 0 -189 -233v-1416h-502z" />
<glyph unicode="&#xe0;" horiz-adv-x="1296" d="M25 307q0 367 593 367q41 0 59.5 7t18.5 34v12q0 102 -213 102q-168 0 -319 -73l-70 327q227 68 488 68q594 0 594 -418v-391q0 -72 45 -72q20 0 36 11l13 -275q-133 -27 -238 -26q-229 0 -287 133q-74 -78 -157.5 -113t-210.5 -35q-154 0 -253 94t-99 248zM80 1516h477 l227 -318h-335zM494 338q0 -39 24.5 -64.5t59.5 -25.5q59 0 92 39q29 31 28 86v69h-53q-151 0 -151 -104z" />
<glyph unicode="&#xe1;" horiz-adv-x="1296" d="M25 307q0 367 593 367q41 0 59.5 7t18.5 34v12q0 102 -213 102q-168 0 -319 -73l-70 327q227 68 488 68q594 0 594 -418v-391q0 -72 45 -72q20 0 36 11l13 -275q-133 -27 -238 -26q-229 0 -287 133q-74 -78 -157.5 -113t-210.5 -35q-154 0 -253 94t-99 248zM373 1198 l227 318h477l-368 -318h-336zM494 338q0 -39 24.5 -64.5t59.5 -25.5q59 0 92 39q29 31 28 86v69h-53q-151 0 -151 -104z" />
<glyph unicode="&#xe2;" horiz-adv-x="1296" d="M25 307q0 367 593 367q41 0 59.5 7t18.5 34v12q0 102 -213 102q-168 0 -319 -73l-70 327q227 68 488 68q594 0 594 -418v-391q0 -72 45 -72q20 0 36 11l13 -275q-133 -27 -238 -26q-229 0 -287 133q-74 -78 -157.5 -113t-210.5 -35q-154 0 -253 94t-99 248zM162 1198 l248 318h426l247 -318h-335l-127 121l-123 -121h-336zM494 338q0 -39 24.5 -64.5t59.5 -25.5q59 0 92 39q29 31 28 86v69h-53q-151 0 -151 -104z" />
<glyph unicode="&#xe3;" horiz-adv-x="1296" d="M25 307q0 367 593 367q41 0 59.5 7t18.5 34v12q0 102 -213 102q-168 0 -319 -73l-70 327q227 68 488 68q594 0 594 -418v-391q0 -72 45 -72q20 0 36 11l13 -275q-133 -27 -238 -26q-229 0 -287 133q-74 -78 -157.5 -113t-210.5 -35q-154 0 -253 94t-99 248zM199 1198 q25 317 256 318q49 0 143 -27t123 -27q55 0 67 54h263q-25 -317 -256 -318q-49 0 -143.5 26.5t-123.5 26.5q-55 0 -67 -53h-262zM494 338q0 -39 24.5 -64.5t59.5 -25.5q59 0 92 39q29 31 28 86v69h-53q-151 0 -151 -104z" />
<glyph unicode="&#xe4;" horiz-adv-x="1296" d="M25 307q0 367 593 367q41 0 59.5 7t18.5 34v12q0 102 -213 102q-168 0 -319 -73l-70 327q227 68 488 68q594 0 594 -418v-391q0 -72 45 -72q20 0 36 11l13 -275q-133 -27 -238 -26q-229 0 -287 133q-74 -78 -157.5 -113t-210.5 -35q-154 0 -253 94t-99 248zM125 1362 q0 80 58.5 136t168.5 56q104 0 163.5 -52t59.5 -140t-61 -139.5t-161.5 -51.5t-164 52.5t-63.5 138.5zM494 338q0 -39 24.5 -64.5t59.5 -25.5q59 0 92 39q29 31 28 86v69h-53q-151 0 -151 -104zM629 1362q0 80 58 136t169 56q104 0 163.5 -52t59.5 -140t-61.5 -139.5 t-161.5 -51.5t-163.5 52.5t-63.5 138.5z" />
<glyph unicode="&#xe5;" horiz-adv-x="1296" d="M25 307q0 367 593 367q41 0 59.5 7t18.5 34v12q0 102 -213 102q-168 0 -319 -73l-70 327q227 68 488 68q594 0 594 -418v-391q0 -72 45 -72q20 0 36 11l13 -275q-133 -27 -238 -26q-229 0 -287 133q-74 -78 -157.5 -113t-210.5 -35q-154 0 -253 94t-99 248zM340 1393 q0 115 67.5 178t192.5 63q260 0 260 -227q0 -115 -67.5 -178.5t-192.5 -63.5q-260 1 -260 228zM494 338q0 -39 24.5 -64.5t59.5 -25.5q59 0 92 39q29 31 28 86v69h-53q-151 0 -151 -104zM541 1395q0 -80 59 -80t59 90q0 82 -59 82t-59 -92z" />
<glyph unicode="&#xe6;" horiz-adv-x="1925" d="M25 307q0 379 593 379q41 0 59.5 7t18.5 34v8q0 39 -50 66.5t-163 27.5q-168 0 -319 -73l-70 327q227 68 488 68q233 0 397 -94q150 94 336 94q264 0 426 -143q147 -130 147 -355q0 -23 -2 -47q-135 -76 -326.5 -121t-377.5 -47q0 -6 4 -14q23 -76 88 -106.5t196 -30.5 q166 0 320 59l57 -321q-201 -59 -442 -60q-367 0 -551 176q-111 -100 -215 -138t-262 -38q-154 0 -253 94t-99 248zM494 338q0 -39 24.5 -64.5t59.5 -25.5q53 0 90 31q51 41 51 90q0 10 -6 41l-8 45h-60q-55 0 -103 -29t-48 -88zM1176 711q156 6 247 49q0 51 -32.5 84 t-81.5 33q-68 0 -100.5 -46t-32.5 -120z" />
<glyph unicode="&#xe7;" horiz-adv-x="1021" d="M45 543q0 272 165 440t435 168q209 0 359 -47l-86 -356q-74 37 -140 36q-104 0 -157.5 -63.5t-53.5 -169.5q0 -100 57.5 -163.5t157.5 -63.5q78 0 152 34l76 -344q-154 -49 -328 -49q-281 0 -459 151t-178 427zM432 -414q117 115 117 226q0 63 -33 110h344q23 -45 23 -78 q0 -147 -156 -258h-295z" />
<glyph unicode="&#xe8;" horiz-adv-x="1290" d="M45 549q0 283 175 442.5t460 159.5q264 0 426 -143q147 -130 147 -355q0 -23 -2 -47q-135 -76 -326.5 -121t-377.5 -47l4 -14q23 -76 88.5 -106.5t196.5 -30.5q164 0 319 59l57 -321q-199 -59 -442 -60q-152 0 -276.5 31t-228 96.5t-162 182t-58.5 274.5zM150 1516h477 l227 -318h-336zM541 711q156 6 247 49q0 51 -32.5 84t-81.5 33q-68 0 -100.5 -46t-32.5 -120z" />
<glyph unicode="&#xe9;" horiz-adv-x="1290" d="M45 549q0 283 175 442.5t460 159.5q264 0 426 -143q147 -130 147 -355q0 -23 -2 -47q-135 -76 -326.5 -121t-377.5 -47l4 -14q23 -76 88.5 -106.5t196.5 -30.5q164 0 319 59l57 -321q-199 -59 -442 -60q-152 0 -276.5 31t-228 96.5t-162 182t-58.5 274.5zM467 1198 l227 318h477l-368 -318h-336zM541 711q156 6 247 49q0 51 -32.5 84t-81.5 33q-68 0 -100.5 -46t-32.5 -120z" />
<glyph unicode="&#xea;" horiz-adv-x="1290" d="M45 549q0 283 175 442.5t460 159.5q264 0 426 -143q147 -130 147 -355q0 -23 -2 -47q-135 -76 -326.5 -121t-377.5 -47l4 -14q23 -76 88.5 -106.5t196.5 -30.5q164 0 319 59l57 -321q-199 -59 -442 -60q-152 0 -276.5 31t-228 96.5t-162 182t-58.5 274.5zM223 1198 l248 318h426l248 -318h-336l-127 121l-123 -121h-336zM541 711q156 6 247 49q0 51 -32.5 84t-81.5 33q-68 0 -100.5 -46t-32.5 -120z" />
<glyph unicode="&#xeb;" horiz-adv-x="1290" d="M45 549q0 283 175 442.5t460 159.5q264 0 426 -143q147 -130 147 -355q0 -23 -2 -47q-135 -76 -326.5 -121t-377.5 -47l4 -14q23 -76 88.5 -106.5t196.5 -30.5q164 0 319 59l57 -321q-199 -59 -442 -60q-152 0 -276.5 31t-228 96.5t-162 182t-58.5 274.5zM205 1362 q0 80 58.5 136t168.5 56q104 0 163.5 -52t59.5 -140t-61.5 -139.5t-161.5 -51.5t-163.5 52.5t-63.5 138.5zM541 711q156 6 247 49q0 51 -32.5 84t-81.5 33q-68 0 -100.5 -46t-32.5 -120zM709 1362q0 80 58 136t169 56q104 0 163.5 -52t59.5 -140t-61.5 -139.5t-161.5 -51.5 t-163.5 52.5t-63.5 138.5z" />
<glyph unicode="&#xec;" horiz-adv-x="759" d="M-137 1516h477l227 -318h-336zM111 365v751h503v-774q0 -72 45 -72q20 0 37 11l13 -275q-133 -27 -220 -26q-197 0 -287.5 95t-90.5 290z" />
<glyph unicode="&#xed;" horiz-adv-x="759" d="M111 365v751h503v-774q0 -72 45 -72q20 0 37 11l13 -275q-133 -27 -220 -26q-197 0 -287.5 95t-90.5 290zM150 1198l227 318h477l-369 -318h-335z" />
<glyph unicode="&#xee;" horiz-adv-x="759" d="M-96 1198l248 318h426l247 -318h-336l-127 121l-122 -121h-336zM111 365v751h503v-774q0 -72 45 -72q20 0 37 11l13 -275q-133 -27 -220 -26q-197 0 -287.5 95t-90.5 290z" />
<glyph unicode="&#xef;" horiz-adv-x="759" d="M-109 1362q0 80 58.5 136t169.5 56q104 0 163.5 -52t59.5 -140t-61.5 -139.5t-162 -51.5t-164 52.5t-63.5 138.5zM111 365v751h503v-774q0 -72 45 -72q20 0 37 11l13 -275q-133 -27 -220 -26q-197 0 -287.5 95t-90.5 290zM395 1362q0 80 58.5 136t169.5 56 q104 0 163.5 -52t59.5 -140t-61.5 -139.5t-162 -51.5t-164 52.5t-63.5 138.5z" />
<glyph unicode="&#xf0;" horiz-adv-x="1406" d="M45 496q0 256 164 397t424 141q106 0 188 -45q-10 68 -57 129l-74 -84l-198 156l28 39q-6 0 -18.5 -1t-18.5 -1q-86 -8 -166 -51l-38 340q133 20 239 20q139 0 260 -29l111 131l207 -168l-68 -71q334 -217 334 -705q0 -338 -171 -535.5t-503 -197.5q-281 0 -462 132.5 t-181 402.5zM573 506q0 -240 127 -240q129 0 129 269q0 219 -129 219q-127 0 -127 -248z" />
<glyph unicode="&#xf1;" horiz-adv-x="1427" d="M102 0v1116h457v-153q158 188 381 188q201 0 295 -102.5t94 -274.5v-774h-500v639q0 117 -104 117q-45 0 -84 -35q-25 -25 -31 -43.5t-6 -59.5v-618h-502zM281 1198q25 317 256 318q49 0 143 -27t123 -27q55 0 67 54h263q-25 -317 -256 -318q-49 0 -143.5 26.5 t-123.5 26.5q-55 0 -67 -53h-262z" />
<glyph unicode="&#xf2;" horiz-adv-x="1413" d="M45 541q0 293 170 453.5t492 160.5q324 0 492.5 -147.5t168.5 -432.5q0 -293 -170 -453.5t-491 -160.5q-324 0 -493 147.5t-169 432.5zM215 1516h477l228 -318h-336zM567 543q0 -113 34 -186.5t106 -73.5q139 0 139 290q0 113 -34 187t-105 74q-140 0 -140 -291z" />
<glyph unicode="&#xf3;" horiz-adv-x="1413" d="M45 541q0 293 170 453.5t492 160.5q324 0 492.5 -147.5t168.5 -432.5q0 -293 -170 -453.5t-491 -160.5q-324 0 -493 147.5t-169 432.5zM506 1198l227 318h477l-368 -318h-336zM567 543q0 -113 34 -186.5t106 -73.5q139 0 139 290q0 113 -34 187t-105 74q-140 0 -140 -291 z" />
<glyph unicode="&#xf4;" horiz-adv-x="1413" d="M45 541q0 293 170 453.5t492 160.5q324 0 492.5 -147.5t168.5 -432.5q0 -293 -170 -453.5t-491 -160.5q-324 0 -493 147.5t-169 432.5zM262 1198l248 318h426l248 -318h-336l-127 121l-123 -121h-336zM567 543q0 -113 34 -186.5t106 -73.5q139 0 139 290q0 113 -34 187 t-105 74q-140 0 -140 -291z" />
<glyph unicode="&#xf5;" horiz-adv-x="1413" d="M45 541q0 293 170 453.5t492 160.5q324 0 492.5 -147.5t168.5 -432.5q0 -293 -170 -453.5t-491 -160.5q-324 0 -493 147.5t-169 432.5zM295 1198q25 317 256 318q47 0 141 -27t125 -27q55 0 68 54h262q-25 -317 -256 -318q-47 0 -141.5 26.5t-124.5 26.5q-55 0 -68 -53 h-262zM567 543q0 -113 34 -186.5t106 -73.5q139 0 139 290q0 113 -34 187t-105 74q-140 0 -140 -291z" />
<glyph unicode="&#xf6;" horiz-adv-x="1413" d="M45 541q0 293 170 453.5t492 160.5q324 0 492.5 -147.5t168.5 -432.5q0 -293 -170 -453.5t-491 -160.5q-324 0 -493 147.5t-169 432.5zM248 1362q0 80 58.5 136t168.5 56q104 0 163.5 -52t59.5 -140t-61.5 -139.5t-161.5 -51.5t-163.5 52.5t-63.5 138.5zM567 543 q0 -113 34 -186.5t106 -73.5q139 0 139 290q0 113 -34 187t-105 74q-140 0 -140 -291zM752 1362q0 80 58 136t169 56q104 0 163.5 -52t59.5 -140t-61.5 -139.5t-161.5 -51.5t-163.5 52.5t-63.5 138.5z" />
<glyph unicode="&#xf7;" d="M55 543v377h1139v-377h-1139zM371 299q0 90 66.5 153.5t189.5 63.5q119 0 184.5 -58.5t65.5 -158.5q0 -102 -68 -159.5t-182.5 -57.5t-185 59.5t-70.5 157.5zM371 1165q0 90 66.5 153.5t189.5 63.5q119 0 184.5 -58t65.5 -159q0 -102 -68 -159.5t-182.5 -57.5t-185 59.5 t-70.5 157.5z" />
<glyph unicode="&#xf8;" horiz-adv-x="1413" d="M35 96l106 97q-96 137 -96 348q0 293 170 453.5t492 160.5q252 0 409 -90l105 96l137 -160l-86 -77q96 -137 96 -349q0 -293 -170 -453.5t-491 -160.5q-252 0 -410 90l-125 -110zM541 549l268 242q-39 43 -102 43q-160 0 -166 -261v-24zM602 326q39 -43 105 -43 q160 0 165 262v22z" />
<glyph unicode="&#xf9;" horiz-adv-x="1437" d="M98 342v774h500v-639q0 -117 92 -117q41 0 72 35q33 37 33 103v618h501v-774q0 -72 45 -72q20 0 37 11l13 -275q-133 -27 -238 -26q-254 0 -313 170q-147 -184 -371 -185q-190 0 -280.5 102.5t-90.5 274.5zM168 1516h477l227 -318h-335z" />
<glyph unicode="&#xfa;" horiz-adv-x="1437" d="M98 342v774h500v-639q0 -117 92 -117q41 0 72 35q33 37 33 103v618h501v-774q0 -72 45 -72q20 0 37 11l13 -275q-133 -27 -238 -26q-254 0 -313 170q-147 -184 -371 -185q-190 0 -280.5 102.5t-90.5 274.5zM504 1198l227 318h477l-368 -318h-336z" />
<glyph unicode="&#xfb;" horiz-adv-x="1437" d="M98 342v774h500v-639q0 -117 92 -117q41 0 72 35q33 37 33 103v618h501v-774q0 -72 45 -72q20 0 37 11l13 -275q-133 -27 -238 -26q-254 0 -313 170q-147 -184 -371 -185q-190 0 -280.5 102.5t-90.5 274.5zM227 1198l248 318h426l248 -318h-336l-127 121l-123 -121h-336z " />
<glyph unicode="&#xfc;" horiz-adv-x="1437" d="M98 342v774h500v-639q0 -117 92 -117q41 0 72 35q33 37 33 103v618h501v-774q0 -72 45 -72q20 0 37 11l13 -275q-133 -27 -238 -26q-254 0 -313 170q-147 -184 -371 -185q-190 0 -280.5 102.5t-90.5 274.5zM221 1362q0 80 58.5 136t169.5 56q104 0 163.5 -52t59.5 -140 t-61.5 -139.5t-162 -51.5t-164 52.5t-63.5 138.5zM725 1362q0 80 58.5 136t168.5 56q104 0 164 -52t60 -140t-61.5 -139.5t-162 -51.5t-164 52.5t-63.5 138.5z" />
<glyph unicode="&#xfd;" horiz-adv-x="1304" d="M41 1116h518q8 -350 123 -702h4q102 311 102 702h472q-43 -416 -151 -722t-266.5 -486t-347 -265t-413.5 -85l-4 336q219 6 344 104q-303 422 -381 1118zM492 1198l227 318h477l-369 -318h-335z" />
<glyph unicode="&#xfe;" horiz-adv-x="1404" d="M102 -410v1926h502v-508q125 143 318 143q213 0 325.5 -164t112.5 -416q0 -113 -28.5 -217t-88 -193t-162 -142.5t-237.5 -53.5q-147 0 -238 80v-455h-504zM604 381q0 -92 103 -92q51 0 82.5 43t40 91t8.5 99q0 240 -123 240q-41 0 -78 -37q-33 -35 -33 -90v-254z" />
<glyph unicode="&#xff;" horiz-adv-x="1304" d="M41 1116h518q8 -350 123 -702h4q102 311 102 702h472q-43 -416 -151 -722t-266.5 -486t-347 -265t-413.5 -85l-4 336q219 6 344 104q-303 422 -381 1118zM197 1362q0 80 58 136t169 56q104 0 163.5 -52t59.5 -140t-61.5 -139.5t-161.5 -51.5t-163.5 52.5t-63.5 138.5z M700 1362q0 80 58.5 136t169.5 56q104 0 163.5 -52t59.5 -140t-61.5 -139.5t-162 -51.5t-164 52.5t-63.5 138.5z" />
<glyph unicode="&#x152;" horiz-adv-x="2355" d="M61 725q0 162 50.5 295t130.5 218t188.5 143.5t219 83t224.5 24.5q152 0 304 -59v16h1026v-381h-529v-147h508v-349h-508v-90q0 -74 45 -98h514v-381h-901q-31 16 -71 57l-9 9q-147 -104 -385 -105q-168 0 -307 41t-255 127t-180.5 237.5t-64.5 358.5zM610 727 q0 -395 258 -395q139 0 202 108.5t63 282.5q0 395 -259 395q-139 0 -201.5 -108.5t-62.5 -282.5z" />
<glyph unicode="&#x153;" horiz-adv-x="2109" d="M45 541q0 293 170 453.5t492 160.5q248 0 421 -113q172 109 371 109q264 0 426 -143q147 -130 147 -355q0 -23 -1 -47q-135 -76 -327 -121t-378 -47l4 -14q23 -76 88.5 -106.5t196.5 -30.5q166 0 319 59l58 -321q-201 -59 -443 -60q-272 0 -463 117q-174 -121 -419 -121 q-324 0 -493 147.5t-169 432.5zM567 543q0 -113 34 -186.5t106 -73.5q139 0 139 290q0 113 -34 187t-105 74q-140 0 -140 -291zM1360 711q156 6 248 49q0 51 -33 84t-82 33q-68 0 -100.5 -46t-32.5 -120z" />
<glyph unicode="&#x178;" horiz-adv-x="1579" d="M45 1446h590q74 -326 190 -555h4q104 211 179 555h526q-139 -535 -473 -918v-528h-541v528q-332 383 -475 918zM350 1690q0 80 58.5 136t169.5 56q104 0 163.5 -52t59.5 -140t-61.5 -139.5t-162 -51.5t-164 52.5t-63.5 138.5zM854 1690q0 80 58.5 136t168.5 56 q104 0 164 -52t60 -140t-61.5 -139.5t-162 -51.5t-164 52.5t-63.5 138.5z" />
<glyph unicode="&#x2c6;" d="M164 1198l248 318h426l247 -318h-335l-127 121l-123 -121h-336z" />
<glyph unicode="&#x302;" d="M164 1198l248 318h426l247 -318h-335l-127 121l-123 -121h-336z" />
<glyph unicode="&#x2dc;" d="M201 1198q25 317 256 318q47 0 141 -27t125 -27q55 0 68 54h262q-25 -317 -256 -318q-47 0 -141.5 26.5t-125.5 26.5q-55 0 -67 -53h-262z" />
<glyph unicode="&#x303;" d="M201 1198q25 317 256 318q47 0 141 -27t125 -27q55 0 68 54h262q-25 -317 -256 -318q-47 0 -141.5 26.5t-125.5 26.5q-55 0 -67 -53h-262z" />
<glyph unicode="&#x2013;" horiz-adv-x="1286" d="M18 408v331h1250v-331h-1250z" />
<glyph unicode="&#x2014;" horiz-adv-x="2498" d="M14 414v303h2499v-303h-2499z" />
<glyph unicode="&#x2018;" horiz-adv-x="573" d="M47 1008q0 281 221 508h338q-152 -229 -151 -472q0 -109 39 -215h-416q-31 81 -31 179z" />
<glyph unicode="&#x2019;" horiz-adv-x="573" d="M-33 829q152 229 152 471q0 109 -39 216h416q31 -80 30 -179q0 -281 -221 -508h-338z" />
<glyph unicode="&#x201a;" horiz-adv-x="573" d="M-33 -287q152 229 152 471q0 109 -39 215h416q31 -80 30 -178q0 -281 -221 -508h-338z" />
<glyph unicode="&#x201c;" horiz-adv-x="1085" d="M47 1008q0 281 221 508h338q-152 -229 -151 -472q0 -109 39 -215h-416q-31 81 -31 179zM559 1008q0 281 221 508h338q-152 -229 -151 -472q0 -109 39 -215h-416q-31 81 -31 179z" />
<glyph unicode="&#x201d;" horiz-adv-x="1085" d="M-33 829q152 229 152 471q0 109 -39 216h416q31 -80 30 -179q0 -281 -221 -508h-338zM479 829q152 229 152 471q0 109 -39 216h416q31 -80 30 -179q0 -281 -221 -508h-338z" />
<glyph unicode="&#x201e;" horiz-adv-x="1085" d="M-33 -287q152 229 152 471q0 109 -39 215h416q31 -80 30 -178q0 -281 -221 -508h-338zM479 -287q152 229 152 471q0 109 -39 215h416q31 -80 30 -178q0 -281 -221 -508h-338z" />
<glyph unicode="&#x2022;" horiz-adv-x="819" d="M37 727.5q0 149.5 109.5 257t263 107.5t263 -107.5t109.5 -257t-109.5 -257.5t-263 -108t-263 108t-109.5 257.5z" />
<glyph unicode="&#x2026;" horiz-adv-x="2498" d="M250 199q0 90 66.5 153.5t189.5 63.5q119 0 184.5 -58.5t65.5 -158.5q0 -102 -67.5 -159.5t-182.5 -57.5t-185.5 59.5t-70.5 157.5zM997 199q0 90 66.5 153.5t189.5 63.5q119 0 184.5 -58.5t65.5 -158.5q0 -102 -67.5 -159.5t-182 -57.5t-185.5 59.5t-71 157.5zM1743 199 q0 90 66.5 153.5t189.5 63.5q119 0 184.5 -58.5t65.5 -158.5q0 -102 -67.5 -159.5t-182.5 -57.5t-185.5 59.5t-70.5 157.5z" />
<glyph unicode="&#x2039;" horiz-adv-x="839" d="M53 551l312 418h421l-231 -418l231 -418h-421z" />
<glyph unicode="&#x203a;" horiz-adv-x="839" d="M53 133l232 418l-232 418h422l311 -418l-311 -418h-422z" />
<glyph unicode="&#x20ac;" d="M137 301v227h103v41h-103v228h148q66 166 211 260t344 94q209 0 358 -47l-84 -291q-66 37 -141 37q-80 0 -127 -53h221v-228h-305v-41h305v-227h-205q39 -43 115 -43q90 0 151 37l76 -281q-154 -49 -327 -49q-209 0 -367 87t-225 249h-148z" />
<glyph unicode="&#x2122;" horiz-adv-x="2293" d="M8 1178v268h856v-268h-250v-637h-356v637h-250zM920 541l22 905h504l80 -361q20 -94 39 -213h6q10 72 39 211l76 363h501l23 -905h-348v454q0 27 2 87.5t2 76.5h-6q-4 -33 -35 -176l-101 -442h-366l-98 452q-27 127 -33 166h-6q0 -16 2 -67.5t2 -79.5l-2 -471h-303z" />
<glyph unicode="&#xe000;" horiz-adv-x="1150" d="M0 1150h1150v-1150h-1150v1150z" />
<glyph unicode="&#xfb01;" horiz-adv-x="1536" d="M33 791v303h125v20q0 109 51 188.5t125 123.5t178 72t187 35t175 7q268 0 545 -70l-73 -337q-195 70 -431 69q-256 0 -256 -94v-14h742v-752q0 -72 45 -72q20 0 37 11l12 -275q-133 -27 -221 -26q-197 0 -287 95t-90 290v426h-233v-1201h-506v1201h-125z" />
<glyph unicode="&#xfb02;" horiz-adv-x="1536" d="M33 791v303h125v20q0 109 51 188.5t125 123.5t178 72t187 35t175 7q264 0 527 -65v-1133q0 -72 45 -72q20 0 37 11l12 -275q-133 -27 -219 -26q-197 0 -288 95t-91 290v843h-18q-219 0 -220 -94v-20h166v-303h-161v-1201h-506v1201h-125z" />
<glyph unicode="&#xfb03;" horiz-adv-x="2275" d="M33 791v303h125v20q0 426 694 426q205 0 420 -37q154 37 342 37q268 0 545 -70l-74 -337q-195 70 -430 69q-256 0 -256 -94v-14h741v-752q0 -72 45 -72q20 0 37 11l12 -275q-133 -27 -221 -26q-197 0 -287 95t-90 290v426h-233v-1201h-506v1201h-233v-1201h-506v1201 h-125zM659 1094h238v20q0 53 8 88h-26q-127 0 -173.5 -18.5t-46.5 -71.5v-18z" />
<glyph unicode="&#xfb04;" horiz-adv-x="2275" d="M33 791v303h125v20q0 426 694 426q205 0 420 -37q154 37 342 37q264 0 526 -65v-1133q0 -72 45 -72q20 0 37 11l12 -275q-133 -27 -219 -26q-197 0 -288 95t-91 290v843h-18q-219 0 -219 -94v-20h166v-303h-162v-1201h-506v1201h-233v-1201h-506v1201h-125zM659 1094h238 v20q0 53 8 88h-16q-131 0 -180.5 -18.5t-49.5 -71.5v-18z" />
</font>
</defs>
</svg>
